<?xml version="1.0" encoding="UTF-8" standalone="no"?> <svg xmlns="http://www.w3.org/2000/svg" viewBox="0 0 495.37 412.47"><title>ito-gaia-chemtrails</title><g id="Livello_2" data-name="Livello 2"><g id="Livello_1-2" data-name="Livello 1"><path d="M207.4,412.39H144.9c-6.8,0-6.89-.1-6.89-7.08q0-61.5,0-123c0-6.9,0-6.92-6.87-6.92H7.64C0,275.39,0,275.37,0,268q0-62,0-124c0-6.94.09-7,6.93-7h124c7.06,0,7.07,0,7.07-7.22q0-61.24,0-122.49C138,0,138,0,145.2,0h125c7.17,0,7.2,0,7.2,7.28q0,61.49,0,123c0,6.69,0,6.72,6.56,6.72H408c7.42,0,7.43,0,7.44,7.54,0,12.33-.18,24.67.09,37,.1,4.41-1.62,6.09-5.73,7-25.62,5.69-49.77,14.86-71,30.75-2.38,1.79-4,1.46-6-.61-28.4-30.16-64.86-43.23-104.65-49.18-2.8-.42-5.69-.52-8.37-1.35-3.91-1.21-5.26.64-6.53,3.91-6.51,16.8-9.56,34.33-10.48,52.18-1.2,23.38-.37,46.62,7.45,69.1,10.56,30.34,30.63,51.07,61.39,60.9,4.46,1.43,6,3.53,5.88,8.16-.27,14.66-.23,29.33,0,44,.06,4.58-1.52,6.1-6.08,6.07C250.06,412.29,228.73,412.39,207.4,412.39Z"/><path d="M374,283.17c-29.69,23.26-52.35,51.68-64,88.86a13.82,13.82,0,0,1-1.76-2.77c-3.36-12.87-7.1-25.66-7.26-39.14-.2-16-.25-31.94,5.41-47.32,9.3-25.26,26.73-43.39,49.33-57,26.07-15.74,54.71-24,84.53-28.88a268.35,268.35,0,0,1,46.27-3c4.08.05,6,1.16,6.41,5.45,3.82,40.7,5,81.2-10.66,120.11-16.83,41.83-48.6,65-92.33,73a213.61,213.61,0,0,1-44.25,2.92c-2.16-.06-4.31-.49-6.46-.5-4.34,0-5.26-1.95-4.19-6,4.13-15.78,8.33-31.53,13.53-47A376.39,376.39,0,0,1,374,283.17Z"/><path d="M259.21,218.19C270.65,235,278.33,253.38,285.78,272c2.91,7.25,3.47,13.88,1,21.63-3.93,12.47-3.39,25.65-3.27,38.65.1,11.16,0,11.22-10.6,7.6-19.68-6.72-33.26-20.45-43.08-38.22-8.53-15.42-12.61-32-13-49.73-.46-21.33,2.33-42.15,6.95-62.86.85-3.8,2.6-5.63,6.54-4.87,23.49,4.54,46.49,10.49,67,23.45a132.32,132.32,0,0,1,22.15,17.83c2.38,2.35,2.59,4.08.36,6.71-7.21,8.5-14.87,16.64-20.42,26.46-2.34,4.14-3.18.36-4-1.25a107.1,107.1,0,0,0-27.14-34.22C265.66,220.92,262.92,218.83,259.21,218.19Z"/></g></g></svg>