<?xml version="1.0" encoding="UTF-8" standalone="no"?> <svg xmlns="http://www.w3.org/2000/svg" viewBox="0 0 498.51 545.49"><title>ito-atomo-electron</title><g id="Livello_2" data-name="Livello 2"><g id="Livello_1-2" data-name="Livello 1"><path d="M77,117.87c26.48.45,52.45,5.41,78.29,11.31,7,1.61,7,1.64,8.81-5.49,6.73-26.18,14.3-52.06,26.87-76.17,6.67-12.78,14.44-24.75,25.42-34.34C237.19-5,262.88-4.3,282.89,14.88,296.53,27.94,305.56,44,313.14,61c9.12,20.45,15.64,41.78,20.68,63.57,1.81,7.8,1.86,7.93,9.59,6.34,12.39-2.56,24.74-5.32,37.13-7.87,5.58-1.16,6-.7,5.9,5-.09,4.5-.39,9,1.74,13.22,1.73,3.46-1.38,3.52-3.26,3.92-11.88,2.51-23.8,4.88-35.71,7.3l-2.45.51c-6.56,1.42-6.67,1.62-5.8,8.27,1.19,9,.61,18,.25,27-.57,14.37,5.17,25.39,15.78,34.53,15.63,13.47,33,24.17,51.26,33.68,2.71,1.42,4.8,1.44,7.15-.79,16.25-15.37,31.76-31.4,45-49.51,5.92-8.11,11.09-16.66,14.05-26.34,4.39-14.37.14-23.81-13.31-30.32-3.41-1.66-8.34-1.66-10-5s1.32-7.28,1.56-11.08a23.4,23.4,0,0,0,.27-3c-.56-7.65.8-8.38,8.38-5.69a86.17,86.17,0,0,1,9.7,4c23.62,11.81,32.29,31.78,24.93,57.4-5.26,18.3-15.65,33.76-27.33,48.44a242.54,242.54,0,0,1-33,34c-3.64,3.09-4,4.81-.18,8.29,20.26,18.52,38.71,38.6,51.54,63.2,5.91,11.33,10.4,23.14,10.5,36.13.14,17.72-7.52,31-23.08,39.7-11.57,6.44-24.19,9.19-37.21,10.64-28.64,3.18-56.34-2.88-84.1-8.41-3.92-.78-7.86-1.5-11.7-2.57-3.6-1-5.46-.38-6.27,3.7-1.16,5.87-3.12,11.57-4.49,17.41-.83,3.53-2.11,5-5.78,2.92-4.21-2.38-8.6-4.41-13.64-4.4-2.62,0-2.85-1.66-2.38-3.79,1.37-6.17,2.53-12.39,4.06-18.53.81-3.24.48-5.07-3.12-6.4-19.38-7.13-38.67-14.52-58-21.9a8.2,8.2,0,0,0-6.23.07q-28.32,10.56-56.71,21c-2.51.92-4.37,1.65-3.59,5.22,6.64,30,15.09,59.44,30.74,86.24,4.8,8.22,10.42,15.88,18.61,21.25,8.47,5.55,16.95,6.25,25.77.77a66.37,66.37,0,0,0,21.51-21.92c2.16-3.5,3.71-3.78,6.84-1.36a33.56,33.56,0,0,0,12.63,5.84c2,.5,3,1.45,1.82,3.49C292.3,523.29,279,539,257.4,544.27c-15.51,3.81-28.95-1.67-40.57-11.81-16.15-14.08-25.63-32.62-33.69-52s-13.81-39.25-18.36-59.61c-1.76-7.9-2.22-8.36-10-6.35-24.43,6.29-49.32,9.81-74.4,11.58-17.77,1.25-35.27-1.35-51.74-8.71-23-10.26-33-31.5-26.78-56.43,5.33-21.32,17.89-38.49,31.88-54.77a274.2,274.2,0,0,1,30.83-30.61c3.12-2.64,2.69-4.17,0-6.54-3.48-3.11-6.63-6.56-10-9.76-2.13-2-1.94-3.55.32-5.24A52.94,52.94,0,0,0,65.5,243.56c1.6-2.14,3.09-2.22,4.93-.49,2.54,2.4,5.13,4.75,7.63,7.21,7.55,7.43,7.55,7.48,16.37,1.26,15.52-11,30.75-22.34,46.62-32.76,7-4.62,10.71-9.66,11.36-18.28,1-13.58,3.37-27.06,5.37-40.56.61-4.08-.89-6.29-4.56-7.62-9.15-3.32-18.68-4.9-28.23-6.28-18.44-2.65-36.88-5.69-55.59-5.5A82.18,82.18,0,0,0,42,145.27c-16,5.84-21.55,16.8-16.6,33,1.26,4.13,4.47,8.35,4,12.15s-7.14,2.75-9.93,5.9c-.77.87-1.8,1.48-2.66,2.28-5.61,5.21-6.13,5.3-9.49-1.86C.5,182.38-1.14,167.31,3.57,152c3.89-12.59,13-20.67,24.84-25.85C43.84,119.41,60.24,118.13,77,117.87ZM248.78,23.43c-5.27-.06-9.74,2.09-13.86,5-7.2,5.13-12.37,12.08-16.82,19.56-15.74,26.49-24.75,55.5-31.74,85.27-.77,3.32.46,4.42,3.22,5.43q28.6,10.44,57.14,21.11a8.43,8.43,0,0,0,6.23,0q27.93-10.14,55.93-20c2.91-1,3.9-2.3,3.12-5.45-5.3-21.33-10.93-42.56-19.43-62.89C287.35,59,281.44,46.82,272.49,36.5,266.22,29.26,258.94,23.69,248.78,23.43ZM77.47,402c25.81-.23,50.87-5.6,75.94-11,3.31-.71,3.81-2.58,3.39-5.45-2.33-16-4.59-31.95-6.89-47.92-.36-2.51-1.07-4.72-3.38-6.37-18.6-13.22-37.21-26.44-55.64-39.9-4-2.94-6.9-2.62-10.33.68-12.5,12-25.07,23.95-35.66,37.75-9.06,11.8-17.55,24-20.77,38.9-2.21,10.28,1.41,18.89,10.32,24.41a44.54,44.54,0,0,0,10.93,4.84A107,107,0,0,0,77.47,402Zm342.15,1.93c2.33,0,4.68.16,7,0,12.16-1,24.24-2.43,35.13-8.53,10.49-5.89,14-13.71,11.4-25.5a67.51,67.51,0,0,0-10.66-24c-12.21-17.74-25.56-34.55-41-49.61-8.31-8.12-8.52-8-17.83-1.33-14.93,10.63-29.67,21.53-44.92,31.67-7.22,4.79-13.41,9.29-11.41,19.18a7,7,0,0,1-.3,2c-1.69,13-2.65,26.15-5.33,39-.6,2.91.47,4.74,3.66,5.31,3.6.65,7.13,1.65,10.7,2.46C377,399.26,398,403.69,419.62,403.88ZM173.5,272.42c0,12.49.31,25-.15,37.48-.2,5.67,1.94,8.82,6.61,11.53,20.17,11.72,40.91,22.35,61.85,32.63,5.41,2.66,9.74,2.43,14.94-.17,21.61-10.8,42.77-22.45,63.9-34.14,3.63-2,4.52-4.79,4.5-8.62-.09-25-.32-50,.13-75,.13-7-2.31-11.15-8.15-14.42-20.79-11.66-42.24-22-63.83-32a9.8,9.8,0,0,0-8.62.13,496.14,496.14,0,0,0-67.18,35.27c-3.05,1.93-4.11,4.28-4.07,7.82C173.6,246.09,173.5,259.26,173.5,272.42Zm-25.4-.22c0-8.49-.07-17,0-25.47,0-3.69-1.06-4-3.95-2Q126.48,256.87,109.46,270c-2.5,1.92-2.84,3.22,0,5.18,11.63,8.06,23.16,16.27,34.74,24.4.91.64,1.84,1.86,3,1.26,1.48-.74.84-2.38.84-3.62C148.13,288.85,148.1,280.53,148.1,272.2Zm202.4,1c0,8.33,0,16.65,0,25,0,1.24-.63,2.93.82,3.63s2.42-.77,3.47-1.48c11.73-7.92,23.13-16.3,34.35-24.93,2.54-1.95,2.74-3.25-.05-5.18-11.62-8.06-23.15-16.27-34.73-24.4-.91-.64-1.8-1.82-3.05-1.24s-.81,2.06-.81,3.15C350.48,256.21,350.5,264.7,350.5,273.19ZM321.91,197c-1-8.77-2-16.63-2.75-24.52-1-9.93-1-10.08-10.53-6.86-9,3-17.93,6.43-27.73,10ZM217.77,369.56C204.21,363,192,356.64,179.92,349.85c-1.45-.82-3.33-2-3,1.38,1,9.1,1.9,18.19,2.9,27.28.26,2.34.87,4.27,4.07,3.23C195,378.14,206,374.39,217.77,369.56ZM218,174.8c-12-4.31-22.92-8.2-33.8-12.11-2.6-.93-3.25.63-3.51,2.68-1.17,9.22-2.3,18.44-3.52,27.65-.29,2.16.25,3,2.32,1.88C192,188.41,204.43,181.89,218,174.8Zm62.65,195.75,33.78,12.13c2.62.95,3.23-.69,3.49-2.72,1.17-9.21,2.29-18.44,3.52-27.64.3-2.25-.36-2.89-2.36-1.85C306.61,357,294.16,363.49,280.65,370.55Z"/><path d="M444.5,128.7c0,14-11.05,25.59-24.57,25.67-13.83.08-24.86-11.42-24.82-25.86,0-14.19,10.43-24.51,24.68-24.52A24.53,24.53,0,0,1,444.5,128.7Z"/><path d="M38.13,200c14.27.12,25.37,10.63,25.37,24,0,13.69-12.16,25.44-26.22,25.34a24.57,24.57,0,0,1-24.17-25.23C13.31,210,23.8,199.88,38.13,200Z"/><path d="M307.87,444c14.54,0,24.59,10,24.63,24.45a25.18,25.18,0,0,1-24.78,24.93,24.54,24.54,0,0,1-24.61-24.89C283.16,454.27,293.54,444,307.87,444Z"/><path d="M191.1,273.58c0-32.09,25.09-56.6,57.94-56.59s58.52,25.08,58.47,56.93-26.86,58.47-58.79,58.46C217.16,332.37,191.09,305.77,191.1,273.58Z"/></g></g></svg>